HIERARCHY
ROOT Hips
{
	OFFSET 0.000000 71.427986 0.000000
	CHANNELS 6 Xposition Yposition Zposition Xrotation Yrotation Zrotation
	JOINT Pelvis
	{
		OFFSET 0.000000 0.000000 0.000000
		CHANNELS 3 Xrotation Yrotation Zrotation
		JOINT LeftUpLeg
		{
			OFFSET 6.797100 -2.508499 -1.318700
			CHANNELS 3 Xrotation Yrotation Zrotation
			JOINT LeftLeg
			{
				OFFSET 0.069008 -29.241863 0.690200
				CHANNELS 3 Xrotation Yrotation Zrotation
				JOINT LeftFoot
				{
					OFFSET -0.069008 -29.568123 -0.266800
					CHANNELS 3 Xrotation Yrotation Zrotation
					JOINT LeftToeBase
					{
						OFFSET 3.145500 -8.631000 16.059900
						CHANNELS 3 Xrotation Yrotation Zrotation
						End Site
						{
							OFFSET 0.000000 18.501587 0.000000
						}
					}
				}
			}
			JOINT Left_ShortSleeve
			{
				OFFSET 0.265923 -10.480953 1.153800
				CHANNELS 3 Xrotation Yrotation Zrotation
				End Site
				{
					OFFSET 1.725763 19.823879 0.000000
				}
			}
		}
		JOINT RightUpLeg
		{
			OFFSET -6.797100 -2.508499 -1.318700
			CHANNELS 3 Xrotation Yrotation Zrotation
			JOINT RightLeg
			{
				OFFSET -0.082453 -29.241932 0.688000
				CHANNELS 3 Xrotation Yrotation Zrotation
				JOINT RightFoot
				{
					OFFSET 0.082453 -29.568058 -0.264600
					CHANNELS 3 Xrotation Yrotation Zrotation
					JOINT RightToeBase
					{
						OFFSET -3.115300 -8.682800 16.113400
						CHANNELS 3 Xrotation Yrotation Zrotation
						End Site
						{
							OFFSET 0.000000 18.567114 0.000000
						}
					}
				}
			}
			JOINT Right_ShortSleeve
			{
				OFFSET -0.265923 -10.480953 1.153800
				CHANNELS 3 Xrotation Yrotation Zrotation
				End Site
				{
					OFFSET -1.725766 19.823910 0.000000
				}
			}
		}
	}
	JOINT Spine
	{
		OFFSET 0.000000 13.368103 0.470500
		CHANNELS 3 Xrotation Yrotation Zrotation
		JOINT Spine1
		{
			OFFSET 0.147000 13.837402 0.538800
			CHANNELS 3 Xrotation Yrotation Zrotation
			JOINT Spine2
			{
				OFFSET 0.168000 16.242897 -1.435500
				CHANNELS 3 Xrotation Yrotation Zrotation
				JOINT Neck
				{
					OFFSET 0.217200 18.631500 -1.679100
					CHANNELS 3 Xrotation Yrotation Zrotation
					JOINT Head
					{
						OFFSET 0.000000 6.599396 1.385900
						CHANNELS 3 Xrotation Yrotation Zrotation
						JOINT Hat
						{
							OFFSET -0.532200 27.220596 -10.096100
							CHANNELS 3 Xrotation Yrotation Zrotation
							End Site
							{
								OFFSET 0.000000 22.029861 0.000000
							}
						}
						JOINT HairD
						{
							OFFSET -10.777400 17.437393 -1.325900
							CHANNELS 3 Xrotation Yrotation Zrotation
							JOINT HairD1
							{
								OFFSET -3.290299 -11.051193 1.062200
								CHANNELS 3 Xrotation Yrotation Zrotation
								End Site
								{
									OFFSET 0.000000 11.579437 0.000000
								}
							}
						}
						JOINT HairB
						{
							OFFSET -10.777400 17.437393 1.467900
							CHANNELS 3 Xrotation Yrotation Zrotation
							JOINT HairB1
							{
								OFFSET -1.561200 -12.956299 3.590200
								CHANNELS 3 Xrotation Yrotation Zrotation
								End Site
								{
									OFFSET 0.000000 13.534866 0.000000
								}
							}
						}
						JOINT HairA
						{
							OFFSET 9.713100 17.437393 1.467900
							CHANNELS 3 Xrotation Yrotation Zrotation
							JOINT HairA1
							{
								OFFSET 1.561200 -12.956299 3.590200
								CHANNELS 3 Xrotation Yrotation Zrotation
								End Site
								{
									OFFSET 0.000000 13.534866 0.000000
								}
							}
						}
						JOINT HairC
						{
							OFFSET 9.713100 17.437393 -1.325900
							CHANNELS 3 Xrotation Yrotation Zrotation
							JOINT HairC1
							{
								OFFSET 3.290300 -11.051193 1.062200
								CHANNELS 3 Xrotation Yrotation Zrotation
								End Site
								{
									OFFSET 0.000000 11.579437 0.000000
								}
							}
						}
					}
				}
				JOINT LeftShoulder
				{
					OFFSET 5.101800 15.108002 -2.763700
					CHANNELS 3 Xrotation Yrotation Zrotation
					JOINT LeftArm
					{
						OFFSET 9.825497 2.506317 -1.597400
						CHANNELS 3 Xrotation Yrotation Zrotation
						JOINT LeftForeArm
						{
							OFFSET 21.966244 0.000000 0.000000
							CHANNELS 3 Xrotation Yrotation Zrotation
							JOINT LeftHand
							{
								OFFSET 33.879036 0.000000 0.000000
								CHANNELS 3 Xrotation Yrotation Zrotation
								JOINT LeftHandThumb1
								{
									OFFSET 6.715286 -2.359680 3.363841
									CHANNELS 3 Xrotation Yrotation Zrotation
									JOINT LeftHandThumb2
									{
										OFFSET 2.507072 -1.447464 1.447461
										CHANNELS 3 Xrotation Yrotation Zrotation
										JOINT LeftHandThumb3
										{
											OFFSET 2.898338 -1.673355 1.673357
											CHANNELS 3 Xrotation Yrotation Zrotation
											End Site
											{
												OFFSET -0.295959 3.727692 -0.131651
											}
										}
									}
								}
								JOINT LeftHandIndex1
								{
									OFFSET 14.190811 -0.254547 3.840278
									CHANNELS 3 Xrotation Yrotation Zrotation
									JOINT LeftHandIndex2
									{
										OFFSET 3.551727 0.000000 -0.000000
										CHANNELS 3 Xrotation Yrotation Zrotation
										JOINT LeftHandIndex3
										{
											OFFSET 2.894196 0.000000 0.000000
											CHANNELS 3 Xrotation Yrotation Zrotation
											End Site
											{
												OFFSET -1.000603 2.690872 0.366626
											}
										}
									}
								}
								JOINT LeftHandMiddle1
								{
									OFFSET 13.776489 0.000000 0.000000
									CHANNELS 3 Xrotation Yrotation Zrotation
									JOINT LeftHandMiddle2
									{
										OFFSET 3.438232 0.000000 0.000000
										CHANNELS 3 Xrotation Yrotation Zrotation
										JOINT LeftHandMiddle3
										{
											OFFSET 3.691551 0.000000 0.000000
											CHANNELS 3 Xrotation Yrotation Zrotation
											End Site
											{
												OFFSET -1.082298 3.499527 0.457670
											}
										}
									}
								}
								JOINT LeftHandRing1
								{
									OFFSET 13.966164 -0.268127 -3.067488
									CHANNELS 3 Xrotation Yrotation Zrotation
									JOINT LeftHandRing2
									{
										OFFSET 3.162567 0.000000 0.000000
										CHANNELS 3 Xrotation Yrotation Zrotation
										JOINT LeftHandRing3
										{
											OFFSET 3.324348 0.000000 0.000000
											CHANNELS 3 Xrotation Yrotation Zrotation
											End Site
											{
												OFFSET -0.861900 3.184998 0.405154
											}
										}
									}
								}
								JOINT LeftHandPinky1
								{
									OFFSET 13.131393 -0.168503 -5.746925
									CHANNELS 3 Xrotation Yrotation Zrotation
									JOINT LeftHandPinky2
									{
										OFFSET 2.849182 0.000000 0.000000
										CHANNELS 3 Xrotation Yrotation Zrotation
										JOINT LeftHandPinky3
										{
											OFFSET 2.805038 0.000000 0.000000
											CHANNELS 3 Xrotation Yrotation Zrotation
											End Site
											{
												OFFSET -0.882500 2.642609 0.325652
											}
										}
									}
								}
							}
							JOINT Left_Sleeve
							{
								OFFSET 6.592125 -0.646545 0.805568
								CHANNELS 3 Xrotation Yrotation Zrotation
								End Site
								{
									OFFSET -0.000179 20.275787 -0.000000
								}
							}
						}
					}
				}
				JOINT RightShoulder
				{
					OFFSET -5.731700 15.108002 -2.763700
					CHANNELS 3 Xrotation Yrotation Zrotation
					JOINT RightArm
					{
						OFFSET -9.825497 2.506317 -1.597400
						CHANNELS 3 Xrotation Yrotation Zrotation
						JOINT RightForeArm
						{
							OFFSET -21.966242 0.000000 0.000000
							CHANNELS 3 Xrotation Yrotation Zrotation
							JOINT RightHand
							{
								OFFSET -33.879032 0.000000 0.000000
								CHANNELS 3 Xrotation Yrotation Zrotation
								JOINT RightHandThumb1
								{
									OFFSET -6.715286 -2.359680 3.363841
									CHANNELS 3 Xrotation Yrotation Zrotation
									JOINT RightHandThumb2
									{
										OFFSET -2.507072 -1.447464 1.447461
										CHANNELS 3 Xrotation Yrotation Zrotation
										JOINT RightHandThumb3
										{
											OFFSET -2.898338 -1.673355 1.673357
											CHANNELS 3 Xrotation Yrotation Zrotation
											End Site
											{
												OFFSET 0.295959 3.727692 -0.131651
											}
										}
									}
								}
								JOINT RightHandIndex1
								{
									OFFSET -14.190811 -0.254547 3.840278
									CHANNELS 3 Xrotation Yrotation Zrotation
									JOINT RightHandIndex2
									{
										OFFSET -3.551727 0.000000 -0.000000
										CHANNELS 3 Xrotation Yrotation Zrotation
										JOINT RightHandIndex3
										{
											OFFSET -2.894196 0.000000 0.000000
											CHANNELS 3 Xrotation Yrotation Zrotation
											End Site
											{
												OFFSET 1.000603 2.690872 0.366626
											}
										}
									}
								}
								JOINT RightHandMiddle1
								{
									OFFSET -13.776489 0.000000 0.000000
									CHANNELS 3 Xrotation Yrotation Zrotation
									JOINT RightHandMiddle2
									{
										OFFSET -3.438232 0.000000 0.000000
										CHANNELS 3 Xrotation Yrotation Zrotation
										JOINT RightHandMiddle3
										{
											OFFSET -3.691551 0.000000 0.000000
											CHANNELS 3 Xrotation Yrotation Zrotation
											End Site
											{
												OFFSET 1.082298 3.499527 0.457670
											}
										}
									}
								}
								JOINT RightHandRing1
								{
									OFFSET -13.966164 -0.268127 -3.067488
									CHANNELS 3 Xrotation Yrotation Zrotation
									JOINT RightHandRing2
									{
										OFFSET -3.162567 0.000000 0.000000
										CHANNELS 3 Xrotation Yrotation Zrotation
										JOINT RightHandRing3
										{
											OFFSET -3.324348 0.000000 0.000000
											CHANNELS 3 Xrotation Yrotation Zrotation
											End Site
											{
												OFFSET 0.861900 3.184998 0.405154
											}
										}
									}
								}
								JOINT RightHandPinky1
								{
									OFFSET -13.131393 -0.168503 -5.746925
									CHANNELS 3 Xrotation Yrotation Zrotation
									JOINT RightHandPinky2
									{
										OFFSET -2.849182 0.000000 0.000000
										CHANNELS 3 Xrotation Yrotation Zrotation
										JOINT RightHandPinky3
										{
											OFFSET -2.805038 0.000000 0.000000
											CHANNELS 3 Xrotation Yrotation Zrotation
											End Site
											{
												OFFSET 0.882500 2.642609 0.325652
											}
										}
									}
								}
							}
							JOINT Right_Sleeve
							{
								OFFSET -6.592125 -0.646545 0.805568
								CHANNELS 3 Xrotation Yrotation Zrotation
								End Site
								{
									OFFSET 0.000179 20.275787 -0.000000
								}
							}
						}
					}
				}
				JOINT Bind_Right_JacketString
				{
					OFFSET -3.534800 11.969597 7.200700
					CHANNELS 3 Xrotation Yrotation Zrotation
					JOINT Bind_Right_JacketString1
					{
						OFFSET -0.319900 -6.102600 2.794100
						CHANNELS 3 Xrotation Yrotation Zrotation
						End Site
						{
							OFFSET 0.000000 6.719452 0.000000
						}
					}
				}
				JOINT Bind_Left_JacketString
				{
					OFFSET 2.904800 11.969597 7.200700
					CHANNELS 3 Xrotation Yrotation Zrotation
					JOINT Bind_Left_JacketString1
					{
						OFFSET 0.364800 -5.904503 3.186800
						CHANNELS 3 Xrotation Yrotation Zrotation
						End Site
						{
							OFFSET 0.000000 6.719513 0.000000
						}
					}
				}
				JOINT HairE
				{
					OFFSET 5.915200 17.612701 -11.592200
					CHANNELS 3 Xrotation Yrotation Zrotation
					JOINT HairE1
					{
						OFFSET 0.289200 -7.171898 -1.284500
						CHANNELS 3 Xrotation Yrotation Zrotation
						End Site
						{
							OFFSET 0.000000 7.291756 0.000000
						}
					}
				}
				JOINT HairF
				{
					OFFSET -0.864800 17.612701 -11.592200
					CHANNELS 3 Xrotation Yrotation Zrotation
					JOINT HairF1
					{
						OFFSET 0.000000 -14.087097 -2.127501
						CHANNELS 3 Xrotation Yrotation Zrotation
						End Site
						{
							OFFSET 0.000000 14.246841 0.000000
						}
					}
				}
				JOINT HairG
				{
					OFFSET -8.087700 17.612701 -11.592200
					CHANNELS 3 Xrotation Yrotation Zrotation
					JOINT HairG1
					{
						OFFSET -0.293600 -6.081398 -0.910100
						CHANNELS 3 Xrotation Yrotation Zrotation
						End Site
						{
							OFFSET 0.000000 6.156120 0.000000
						}
					}
				}
			}
		}
	}
	JOINT Pouch
	{
		OFFSET 0.000000 4.394501 10.847300
		CHANNELS 3 Xrotation Yrotation Zrotation
		End Site
		{
			OFFSET 0.000000 21.880577 0.000000
		}
	}
	JOINT Bag
	{
		OFFSET -13.229000 4.813004 -0.593300
		CHANNELS 3 Xrotation Yrotation Zrotation
		End Site
		{
			OFFSET 0.000000 21.880577 0.000000
		}
	}
	JOINT OccupyGuyFacialAnim_Joint
	{
		OFFSET 1.000000 -70.206398 -1.655000
		CHANNELS 3 Xrotation Yrotation Zrotation
		End Site
		{
			OFFSET 0.000000 21.880577 0.000000
		}
	}
}
MOTION
Frames: 5
Frame Time: 0.033333
-0.704670 59.969559 1.703446 -3.374951 -9.476871 -8.253915 0.000000 -0.000000 0.000001 -27.749891 10.826125 42.652769 56.214274 6.894595 5.815778 -19.461159 5.356629 -24.732445 0.000001 -0.000000 -0.000000 0.000001 -0.000003 -0.000003 -39.019139 -22.385238 -42.410560 41.514518 -8.756624 11.392318 -1.410823 -20.508391 7.258029 0.000001 -0.000000 0.000000 0.000001 0.000000 0.000000 2.921703 0.484687 -0.228766 5.683998 0.774075 -1.020333 5.690101 0.733810 -1.009318 1.587448 0.727455 3.104168 -13.214346 6.597702 14.464613 0.000000 -0.000000 0.000000 0.000000 -0.000000 0.000000 0.000000 -0.000000 0.000001 0.000000 -0.000000 0.000000 -0.000000 -0.000000 0.000001 0.000000 -0.000000 0.000000 -0.000000 -0.000000 0.000001 0.000000 -0.000000 0.000000 0.000000 -0.000000 0.000000 0.603562 -2.922932 -13.802282 1.433818 28.629897 -49.013390 -0.000005 -37.651882 -0.000011 9.661151 -2.614198 -9.231118 -1.540045 3.690180 6.142368 2.825816 6.136785 -0.378224 -0.000000 0.000001 0.000003 -0.110075 -0.055069 -9.791389 0.495320 2.568822 -21.824420 -0.000000 0.000001 -0.000000 0.793062 8.237328 -5.282596 0.514122 2.615212 -22.239958 0.000001 -0.000000 -0.000001 1.850468 13.513130 -7.386462 0.514010 2.614967 -22.237646 -0.000000 0.000001 -0.000001 2.457327 30.449161 -3.009434 0.509670 -1.465869 -22.513413 -0.000000 0.000001 0.000001 0.000000 0.000002 -0.000004 0.360516 5.869572 20.423760 17.118230 -14.906394 29.549157 -0.000007 44.115522 0.000006 -14.241544 1.330811 7.689041 -1.844447 -3.583986 -6.581588 4.644839 -8.633760 -0.220458 -0.000000 -0.000001 -0.000001 -2.756481 8.500011 16.940392 0.337120 -2.142777 17.879970 0.000001 -0.000001 0.000004 -1.226899 3.222512 16.562140 0.333974 -2.132995 17.795416 -0.000000 0.000001 -0.000002 0.362672 -2.239010 16.312860 0.334088 -2.133371 17.798597 0.000000 0.000001 0.000001 0.939967 -4.194823 16.287686 0.351188 -2.185870 18.252299 -0.000002 0.000000 0.000001 0.000001 0.000001 0.000001 -0.000000 0.000000 0.000001 -0.000000 -0.000001 -0.000000 -0.000000 0.000000 0.000000 -0.000000 0.000000 0.000000 -0.000000 0.000000 0.000001 -0.000000 -0.000001 -0.000000 -0.000000 0.000000 0.000000 -0.000000 0.000000 0.000000 -0.000000 0.000000 0.000001 -0.000000 -0.000001 -0.000000 0.000000 -0.000000 0.000001 0.000000 -0.000000 0.000001 0.000000 -0.000000 0.000001 
-3.825956 60.852966 1.792868 -3.060750 -8.978974 -6.805286 0.000000 0.000001 0.000000 -25.447219 10.650330 40.762258 50.337367 10.767821 6.808072 -13.162068 5.181250 -22.772182 -0.000000 0.000001 -0.000000 0.000001 -0.000002 -0.000001 -39.129594 -22.989520 -41.733057 43.262534 -8.916416 11.007278 -1.710583 -19.777484 7.577175 -0.000001 -0.000001 -0.000000 0.000001 -0.000002 -0.000001 2.738163 0.315750 -0.324361 5.382206 0.489014 -1.082711 5.385441 0.461688 -1.075371 1.703709 0.722334 2.783542 -12.505417 6.662689 12.784679 0.000000 -0.000000 -0.000000 0.000000 -0.000000 -0.000000 0.000000 -0.000000 -0.000000 0.000000 -0.000000 -0.000000 0.000000 -0.000000 -0.000000 0.000000 -0.000000 -0.000000 0.000000 -0.000000 -0.000000 0.000000 -0.000000 -0.000000 0.000000 -0.000000 -0.000000 0.608400 -2.914517 -13.889454 2.560644 28.853687 -47.854624 0.000007 -37.306917 0.000015 10.460927 -1.686510 -10.528051 -1.540045 3.690181 6.142367 2.882968 6.188202 -0.345287 0.000001 0.000002 0.000002 -0.110135 -0.047757 -9.851041 0.497855 2.575114 -21.880755 -0.000001 0.000001 -0.000000 0.801061 8.243214 -5.338450 0.516909 2.622007 -22.300938 -0.000000 0.000000 0.000001 1.863475 13.517882 -7.442153 0.516891 2.621991 -22.300684 0.000001 0.000000 0.000000 2.490464 30.453505 -3.074817 0.512731 -1.458486 -22.579583 0.000000 0.000001 0.000003 -0.000000 0.000001 0.000001 0.398364 5.575299 19.887720 16.720619 -15.527470 30.353815 0.000008 44.317228 -0.000018 -15.123765 1.393643 6.452813 -1.844485 -3.588190 -6.582205 4.646153 -8.647786 -0.221513 -0.000001 0.000000 0.000000 -2.754364 8.477416 16.961472 0.338276 -2.146350 17.910735 0.000001 -0.000001 0.000002 -1.223000 3.201245 16.584353 0.335144 -2.136646 17.826903 0.000001 0.000002 -0.000002 0.367058 -2.253514 16.336300 0.335280 -2.137077 17.830602 -0.000000 -0.000001 -0.000000 0.946473 -4.213346 16.311223 0.352398 -2.189546 18.284090 -0.000001 -0.000000 -0.000001 -0.000001 0.000002 0.000006 0.000001 0.000001 -0.000000 0.000001 0.000000 -0.000001 0.000001 0.000001 -0.000001 0.000001 0.000001 -0.000001 0.000001 0.000001 -0.000000 0.000001 0.000000 -0.000001 0.000001 0.000001 -0.000001 0.000001 0.000001 -0.000001 0.000001 0.000001 -0.000000 0.000001 0.000000 -0.000001 0.000000 0.000001 0.000000 0.000000 0.000001 0.000000 0.000000 0.000001 0.000000 
-6.823097 61.740494 1.829277 -2.888465 -8.541239 -5.595480 -0.000000 -0.000000 -0.000000 -24.447349 10.370794 38.762307 45.786388 12.735350 7.800687 -5.252494 9.065942 -18.711272 -0.000001 0.000001 -0.000001 0.000000 -0.000002 -0.000001 -38.710633 -23.706147 -40.654946 44.529053 -8.967110 10.832636 -2.706118 -19.710944 7.408027 -0.000001 0.000000 0.000000 -0.000000 -0.000003 0.000001 2.613034 0.243042 -0.314713 5.176730 0.377965 -1.055496 5.178591 0.362942 -1.049947 1.772771 0.695934 2.327998 -11.848486 6.624839 10.676982 -0.000000 -0.000000 -0.000000 -0.000000 -0.000000 -0.000000 -0.000000 -0.000000 -0.000000 -0.000000 -0.000000 -0.000000 -0.000000 -0.000000 -0.000000 -0.000000 -0.000000 -0.000000 -0.000000 -0.000000 -0.000000 -0.000000 -0.000000 -0.000000 -0.000000 -0.000000 -0.000000 0.607987 -2.964520 -14.192907 3.057718 28.669480 -46.620027 0.000002 -37.195547 0.000001 11.566876 -0.815586 -11.573687 -1.540041 3.690180 6.142367 3.047053 6.335985 -0.251236 -0.000000 -0.000001 -0.000001 -0.110242 -0.026773 -10.022183 0.505141 2.593179 -22.042405 0.000000 -0.000000 -0.000000 0.824080 8.260076 -5.498776 0.524944 2.641497 -22.475926 -0.000000 0.000000 -0.000001 1.900850 13.531473 -7.601926 0.525202 2.642131 -22.481602 -0.000002 0.000000 0.000000 2.585589 30.465792 -3.262436 0.521579 -1.437298 -22.769551 0.000001 -0.000001 -0.000001 0.000000 -0.000000 0.000000 0.435304 5.280280 19.240151 16.327060 -16.075325 31.662223 0.000007 44.537877 0.000017 -16.505782 1.770803 5.486721 -1.844645 -3.604579 -6.584765 4.654569 -8.687871 -0.224866 0.000000 -0.000002 -0.000002 -2.748146 8.411959 17.022537 0.341626 -2.156666 17.999847 0.000001 0.000001 0.000004 -1.211622 3.139655 16.648600 0.338548 -2.147202 17.918091 0.000001 -0.000001 0.000001 0.379817 -2.295504 16.404243 0.338746 -2.147822 17.923327 0.000000 0.000001 -0.000002 0.965395 -4.266958 16.379475 0.355923 -2.200185 18.376160 -0.000001 -0.000001 -0.000001 0.000000 0.000000 0.000001 0.000001 -0.000000 0.000000 0.000001 -0.000001 -0.000000 0.000001 -0.000000 0.000001 0.000001 -0.000000 0.000001 0.000001 -0.000000 0.000000 0.000001 -0.000001 -0.000001 0.000001 -0.000000 0.000001 0.000001 -0.000000 0.000001 0.000001 -0.000000 0.000000 0.000001 -0.000001 -0.000001 -0.000000 -0.000000 -0.000000 -0.000000 -0.000000 -0.000000 -0.000000 -0.000000 -0.000000 
-9.635013 62.606110 1.831756 -2.834991 -8.392458 -4.582990 -0.000000 -0.000001 0.000000 -24.035847 10.706161 37.473567 41.586020 12.985879 7.860078 4.003845 15.329979 -16.533906 0.000000 0.000000 -0.000001 0.000001 0.000001 -0.000001 -37.692740 -24.265213 -39.023333 45.087322 -8.961420 10.753243 -3.742410 -20.184908 7.027728 -0.000000 0.000000 0.000000 -0.000000 -0.000003 0.000002 2.550003 0.264652 -0.212000 5.065083 0.432723 -0.990047 5.066645 0.424855 -0.984267 1.789434 0.661122 1.854231 -11.217183 6.575298 8.474001 0.000000 0.000000 0.000000 0.000000 0.000000 0.000000 0.000000 0.000000 0.000000 0.000000 0.000000 -0.000000 0.000000 0.000000 -0.000000 0.000000 0.000000 -0.000000 0.000000 0.000000 -0.000000 0.000000 0.000000 0.000000 0.000000 0.000000 0.000000 0.610064 -2.953394 -14.506202 3.042651 28.414347 -45.832509 0.000001 -37.464148 0.000018 12.293833 -0.487626 -12.542449 -1.540039 3.690179 6.142369 3.308104 6.571584 -0.103339 -0.000000 0.000002 0.000000 -0.111099 0.002168 -10.294903 0.516838 2.621851 -22.299540 0.000002 0.000001 -0.000002 0.860766 8.286772 -5.753755 0.537841 2.672431 -22.754254 0.000004 0.000000 -0.000001 1.959755 13.548556 -7.856487 0.538545 2.674111 -22.769272 0.000001 0.000001 -0.000002 2.736990 30.484777 -3.560979 0.535811 -1.403681 -23.071706 0.000001 -0.000001 0.000001 0.000000 -0.000001 0.000002 0.453199 5.114386 18.974959 15.915044 -16.530924 32.824953 0.000014 44.831562 -0.000019 -17.773201 2.196382 4.766375 -1.839547 -3.630920 -6.588848 4.674318 -8.751807 -0.228504 -0.000000 -0.000001 0.000001 -2.737863 8.306835 17.120663 0.347036 -2.173245 18.143112 0.000001 -0.000002 0.000002 -1.193053 3.040734 16.751894 0.344062 -2.164173 18.064660 0.000001 -0.000001 -0.000001 0.400527 -2.362934 16.513444 0.344353 -2.165067 18.072390 -0.000002 -0.000004 -0.000001 0.996066 -4.353048 16.489204 0.361629 -2.217266 18.524163 -0.000001 0.000000 0.000001 0.000001 0.000001 0.000000 0.000000 0.000000 0.000000 0.000001 -0.000001 0.000000 0.000000 0.000000 -0.000000 0.000000 0.000000 -0.000000 0.000000 0.000000 0.000000 0.000001 -0.000001 -0.000000 0.000000 0.000000 -0.000000 0.000000 0.000000 -0.000000 0.000000 0.000000 0.000000 0.000001 -0.000001 -0.000000 -0.000000 -0.000001 0.000000 -0.000000 -0.000001 0.000000 -0.000000 -0.000001 0.000000 
-12.227834 63.416290 1.810127 -2.868696 -8.352319 -3.559183 -0.000000 0.000001 0.000000 -23.853418 11.619470 36.905534 39.290117 12.039394 6.278931 9.855823 19.388324 -16.972627 -0.000001 -0.000002 -0.000001 -0.000001 -0.000002 0.000001 -36.305553 -24.499793 -37.210092 45.118809 -8.976099 10.691713 -4.621293 -21.070869 6.628819 0.000000 0.000000 0.000000 0.000003 0.000000 0.000000 2.537548 0.301436 -0.128446 5.044537 0.505567 -0.949090 5.046137 0.499656 -0.942584 1.749316 0.632686 1.454208 -10.652522 6.559921 6.370464 -0.000000 -0.000000 0.000000 -0.000000 -0.000000 0.000000 -0.000000 -0.000000 0.000000 -0.000000 -0.000000 -0.000000 0.000000 -0.000000 -0.000000 -0.000000 -0.000000 -0.000000 0.000000 -0.000000 -0.000000 -0.000000 -0.000000 0.000000 -0.000000 -0.000000 0.000000 0.613287 -2.868650 -14.694233 2.847581 28.245175 -45.716754 -0.000005 -38.364305 -0.000015 12.563467 -0.816504 -13.642790 -1.540045 3.690182 6.142368 3.656182 6.886622 0.090793 -0.000000 0.000001 0.000002 -0.113099 0.035223 -10.658988 0.532635 2.659977 -22.642157 0.000002 0.000001 -0.000000 0.909845 8.322089 -6.093563 0.555263 2.713560 -23.125123 -0.000001 0.000000 0.000001 2.037537 13.565582 -8.196199 0.556566 2.716608 -23.152630 -0.000001 -0.000000 -0.000002 2.938939 30.509017 -3.958916 0.555030 -1.358998 -23.474325 -0.000001 -0.000001 -0.000001 0.000000 0.000001 0.000000 0.454271 5.078666 19.110041 15.491252 -16.807817 33.718055 0.000003 45.394516 -0.000006 -18.425368 2.504220 4.170311 -1.832884 -3.666436 -6.594350 4.701562 -8.838188 -0.230615 0.000001 0.000000 0.000001 -2.723440 8.165180 17.252955 0.354392 -2.195559 18.336249 -0.000001 -0.000000 -0.000002 -1.167472 2.907495 16.891259 0.351561 -2.187024 18.262263 0.000001 0.000000 -0.000002 0.428829 -2.453726 16.660732 0.351988 -2.188301 18.273280 -0.000000 -0.000000 -0.000000 1.037933 -4.468951 16.637270 0.369386 -2.240271 18.723707 -0.000000 0.000001 0.000001 0.000001 -0.000001 -0.000000 -0.000001 -0.000000 0.000000 0.000000 0.000001 0.000000 -0.000001 -0.000000 0.000000 -0.000001 -0.000000 0.000000 -0.000001 -0.000000 0.000000 0.000000 0.000001 0.000000 -0.000001 -0.000000 0.000000 -0.000001 -0.000000 0.000000 -0.000001 -0.000000 0.000000 0.000000 0.000001 0.000000 -0.000000 0.000001 0.000000 -0.000000 0.000001 0.000000 -0.000000 0.000001 0.000000 
